<svg id="visual" viewBox="0 0 900 600" width="900" height="600" xmlns="http://www.w3.org/2000/svg" xmlns:xlink="http://www.w3.org/1999/xlink" version="1.1"><rect x="0" y="0" width="900" height="600" fill="#001220"></rect><path d="M0 268L21.5 246.2C43 224.3 86 180.7 128.8 166.7C171.7 152.7 214.3 168.3 257.2 190.8C300 213.3 343 242.7 385.8 238.5C428.7 234.3 471.3 196.7 514.2 171.3C557 146 600 133 642.8 141.8C685.7 150.7 728.3 181.3 771.2 192.5C814 203.7 857 195.3 878.5 191.2L900 187L900 601L878.5 601C857 601 814 601 771.2 601C728.3 601 685.7 601 642.8 601C600 601 557 601 514.2 601C471.3 601 428.7 601 385.8 601C343 601 300 601 257.2 601C214.3 601 171.7 601 128.8 601C86 601 43 601 21.5 601L0 601Z" fill="#fa7268"></path><path d="M0 217L21.5 223.3C43 229.7 86 242.3 128.8 247C171.7 251.7 214.3 248.3 257.2 244.7C300 241 343 237 385.8 229.3C428.7 221.7 471.3 210.3 514.2 223C557 235.7 600 272.3 642.8 274C685.7 275.7 728.3 242.3 771.2 246.7C814 251 857 293 878.5 314L900 335L900 601L878.5 601C857 601 814 601 771.2 601C728.3 601 685.7 601 642.8 601C600 601 557 601 514.2 601C471.3 601 428.7 601 385.8 601C343 601 300 601 257.2 601C214.3 601 171.7 601 128.8 601C86 601 43 601 21.5 601L0 601Z" fill="#f16367"></path><path d="M0 247L21.5 266.8C43 286.7 86 326.3 128.8 334C171.7 341.7 214.3 317.3 257.2 321.7C300 326 343 359 385.8 358.3C428.7 357.7 471.3 323.3 514.2 315.8C557 308.3 600 327.7 642.8 331.7C685.7 335.7 728.3 324.3 771.2 310.3C814 296.3 857 279.7 878.5 271.3L900 263L900 601L878.5 601C857 601 814 601 771.2 601C728.3 601 685.7 601 642.8 601C600 601 557 601 514.2 601C471.3 601 428.7 601 385.8 601C343 601 300 601 257.2 601C214.3 601 171.7 601 128.8 601C86 601 43 601 21.5 601L0 601Z" fill="#e85467"></path><path d="M0 355L21.5 353.5C43 352 86 349 128.8 350.8C171.7 352.7 214.3 359.3 257.2 367.2C300 375 343 384 385.8 391.7C428.7 399.3 471.3 405.7 514.2 408.2C557 410.7 600 409.3 642.8 397.7C685.7 386 728.3 364 771.2 356.8C814 349.7 857 357.3 878.5 361.2L900 365L900 601L878.5 601C857 601 814 601 771.2 601C728.3 601 685.7 601 642.8 601C600 601 557 601 514.2 601C471.3 601 428.7 601 385.8 601C343 601 300 601 257.2 601C214.3 601 171.7 601 128.8 601C86 601 43 601 21.5 601L0 601Z" fill="#de4467"></path><path d="M0 455L21.5 456.5C43 458 86 461 128.8 463.5C171.7 466 214.3 468 257.2 463.7C300 459.3 343 448.7 385.8 452.8C428.7 457 471.3 476 514.2 476.5C557 477 600 459 642.8 444C685.7 429 728.3 417 771.2 420.2C814 423.3 857 441.7 878.5 450.8L900 460L900 601L878.5 601C857 601 814 601 771.2 601C728.3 601 685.7 601 642.8 601C600 601 557 601 514.2 601C471.3 601 428.7 601 385.8 601C343 601 300 601 257.2 601C214.3 601 171.7 601 128.8 601C86 601 43 601 21.5 601L0 601Z" fill="#d23467"></path><path d="M0 547L21.5 534.7C43 522.3 86 497.7 128.8 498.7C171.7 499.7 214.3 526.3 257.2 537.5C300 548.7 343 544.3 385.8 533C428.7 521.7 471.3 503.3 514.2 503C557 502.7 600 520.3 642.8 523.2C685.7 526 728.3 514 771.2 510C814 506 857 510 878.5 512L900 514L900 601L878.5 601C857 601 814 601 771.2 601C728.3 601 685.7 601 642.8 601C600 601 557 601 514.2 601C471.3 601 428.7 601 385.8 601C343 601 300 601 257.2 601C214.3 601 171.7 601 128.8 601C86 601 43 601 21.5 601L0 601Z" fill="#c62368"></path></svg>